<?xml version="1.0" standalone="no"?>
<svg xmlns="http://www.w3.org/2000/svg" viewBox="0 0 170.448 23.232" width="170.448" height="23.232"><g fill="#e84c3b" color="#e84c3b" transform="translate(0, 1.056) scale(0.29)"><svg width="100.0" height="58.1" x="0.0" y="0.0" viewBox="0 0 100 58.1"><path d="M69.987,1.618C69.919,0.714,69.172,0,68.25,0H1.75C0.828,0,0.081,0.714,0.013,1.618L0,46.55c0,0.967,0.783,1.75,1.75,1.75  h66.5c0.967,0,1.75-0.783,1.75-1.75L69.987,1.618z M3,3.1h64v36.8H3V3.1z"></path><path d="M46.2,56.7c-2.8-0.7-3.5-2.801-3.5-5.601H27.3c0,2.8-0.7,4.9-3.5,5.601c-0.679,0.169-0.7,1.399,0,1.399H35h11.2  C46.9,58.1,46.879,56.869,46.2,56.7z"></path><path d="M97,0.1h-3H83h-3c-1.517,0-3,1.718-3,3v2v1v46v1v2c0,1.282,1.483,3,3,3h3h11h3c1.517,0,3-1.718,3-3v-2v-1v-46v-1v-2  C100,1.817,98.517,0.1,97,0.1z M98.001,55.083C97.961,55.394,97.365,56.1,97,56.1h-3H83h-3c-0.365,0-0.961-0.706-1.001-1.017  L79,53.1h19L98.001,55.083z M79,5.1l-0.001-1.983C79.039,2.806,79.635,2.1,80,2.1h3h11h3c0.365,0,0.961,0.706,1.001,1.017L98,5.1H79  z"></path></svg></g><line x1="41" y1="1" x2="41" y2="17.96" stroke="#ffffff" stroke-linecap="round"></line><path fill="#ffffff" fill-rule="nonzero" d="M15.70 18.82L12.05 19.10L12.05 5.59L8.69 18.96L6.53 18.96L2.90 5.54L2.90 18.82L0 18.96L0 1.13L5.16 0.98L8.14 12.12L10.99 1.39L15.70 1.10L15.70 18.82ZM19.15 23.23Q18.58 23.23 17.74 23.09L17.74 23.09L17.74 20.28Q18.62 20.33 19.15 20.33L19.15 20.33Q21.26 20.33 21.26 18.36L21.26 18.36L21.26 17.69L17.40 5.62L21.05 5.45L22.94 13.92L24.74 5.52L27.79 5.50L24.34 18.72Q23.62 21.31 22.24 22.27Q20.86 23.23 19.15 23.23L19.15 23.23ZM35.26 23.16L35.26 5.74L38.62 5.45L38.62 6.77Q39.41 5.98 40.09 5.63Q40.78 5.28 41.69 5.28L41.69 5.28Q42.94 5.28 43.67 5.98Q44.40 6.67 44.72 8.15Q45.05 9.62 45.05 12.10L45.05 12.10Q45.05 15.48 44.27 17.38Q43.49 19.27 41.28 19.27L41.28 19.27Q40.27 19.27 39.67 18.89Q39.07 18.50 38.62 17.81L38.62 17.81L38.62 22.49L35.26 23.16ZM40.08 16.70Q40.87 16.70 41.27 15.77Q41.66 14.83 41.66 12.24L41.66 12.24Q41.66 9.77 41.27 8.74Q40.87 7.70 40.06 7.70L40.06 7.70Q39.22 7.70 38.62 8.64L38.62 8.64L38.62 15.62Q39.10 16.70 40.08 16.70L40.08 16.70ZM51.77 19.27Q49.34 19.27 48.04 17.35Q46.73 15.43 46.73 12.24L46.73 12.24Q46.73 9.07 48.02 7.18Q49.32 5.28 51.77 5.28L51.77 5.28Q54.19 5.28 55.52 7.18Q56.86 9.07 56.86 12.24L56.86 12.24Q56.86 15.41 55.52 17.34Q54.19 19.27 51.77 19.27L51.77 19.27ZM51.77 16.78Q52.85 16.78 53.16 15.46Q53.47 14.14 53.47 12.22L53.47 12.22Q53.47 10.30 53.16 8.98Q52.85 7.66 51.77 7.66L51.77 7.66Q50.69 7.66 50.40 8.90Q50.11 10.15 50.11 11.95L50.11 11.95Q50.11 14.16 50.40 15.47Q50.69 16.78 51.77 16.78L51.77 16.78ZM59.14 19.10L59.14 5.74L62.50 5.45L62.50 7.63Q63.22 6.60 64.28 5.96Q65.35 5.33 67.01 5.33L67.01 5.33L67.01 8.62Q66.14 8.62 64.74 8.92Q63.34 9.22 62.50 9.96L62.50 9.96L62.50 18.82L59.14 19.10ZM73.44 19.22Q71.81 19.22 70.68 18.40Q69.55 17.57 69.55 15.46L69.55 15.46L69.55 7.99L67.68 7.99L67.82 5.45L69.65 5.45L69.98 2.52L72.91 2.11L72.91 5.45L75.70 5.45L75.55 7.99L72.94 7.99L72.94 15.43Q72.94 16.15 73.30 16.46Q73.66 16.78 74.35 16.78L74.35 16.78Q74.74 16.78 75.65 16.63L75.65 16.63L75.65 18.96Q75.55 18.98 74.89 19.10Q74.23 19.22 73.44 19.22L73.44 19.22ZM78.12 19.10L78.12 7.99L76.46 7.99L76.58 5.45L78.12 5.45L78.12 5.21Q78.12 3.79 78.30 2.92Q78.48 2.04 79.21 1.44Q79.94 0.84 81.48 0.84L81.48 0.84Q82.94 0.84 83.76 1.20L83.76 1.20L83.76 3.22L83.02 3.22Q82.06 3.22 81.78 3.74Q81.50 4.27 81.50 5.21L81.50 5.21L81.50 5.45L83.88 5.45L83.74 7.99L81.50 7.99L81.50 18.82L78.12 19.10ZM89.98 19.27Q87.55 19.27 86.24 17.35Q84.94 15.43 84.94 12.24L84.94 12.24Q84.94 9.07 86.23 7.18Q87.53 5.28 89.98 5.28L89.98 5.28Q92.40 5.28 93.73 7.18Q95.06 9.07 95.06 12.24L95.06 12.24Q95.06 15.41 93.73 17.34Q92.40 19.27 89.98 19.27L89.98 19.27ZM89.98 16.78Q91.06 16.78 91.37 15.46Q91.68 14.14 91.68 12.22L91.68 12.22Q91.68 10.30 91.37 8.98Q91.06 7.66 89.98 7.66L89.98 7.66Q88.90 7.66 88.61 8.90Q88.32 10.15 88.32 11.95L88.32 11.95Q88.32 14.16 88.61 15.47Q88.90 16.78 89.98 16.78L89.98 16.78ZM100.73 18.82L97.37 19.10L97.37 1.39L100.73 0.96L100.73 18.82ZM107.04 3.58L103.68 3.72L103.68 0.24L107.04 0L107.04 3.58ZM107.02 18.82L103.66 19.10L103.66 5.74L107.02 5.45L107.02 18.82ZM114.36 19.27Q111.94 19.27 110.63 17.35Q109.32 15.43 109.32 12.24L109.32 12.24Q109.32 9.07 110.62 7.18Q111.91 5.28 114.36 5.28L114.36 5.28Q116.78 5.28 118.12 7.18Q119.45 9.07 119.45 12.24L119.45 12.24Q119.45 15.41 118.12 17.34Q116.78 19.27 114.36 19.27L114.36 19.27ZM114.36 16.78Q115.44 16.78 115.75 15.46Q116.06 14.14 116.06 12.22L116.06 12.22Q116.06 10.30 115.75 8.98Q115.44 7.66 114.36 7.66L114.36 7.66Q113.28 7.66 112.99 8.90Q112.70 10.15 112.70 11.95L112.70 11.95Q112.70 14.16 112.99 15.47Q113.28 16.78 114.36 16.78L114.36 16.78Z" transform="translate(51, 0)"></path></svg>