<?xml version="1.0" standalone="no"?>
<svg xmlns="http://www.w3.org/2000/svg" viewBox="0 0 184.584 23.16" width="184.584" height="23.16"><g fill="#e84c3b" color="#e84c3b" transform="translate(0, 1.056) scale(0.29)"><svg width="100.0" height="58.1" x="0.0" y="0.0" viewBox="0 0 100 58.1"><path d="M69.987,1.618C69.919,0.714,69.172,0,68.25,0H1.75C0.828,0,0.081,0.714,0.013,1.618L0,46.55c0,0.967,0.783,1.75,1.75,1.75  h66.5c0.967,0,1.75-0.783,1.75-1.75L69.987,1.618z M3,3.1h64v36.8H3V3.1z"></path><path d="M46.2,56.7c-2.8-0.7-3.5-2.801-3.5-5.601H27.3c0,2.8-0.7,4.9-3.5,5.601c-0.679,0.169-0.7,1.399,0,1.399H35h11.2  C46.9,58.1,46.879,56.869,46.2,56.7z"></path><path d="M97,0.1h-3H83h-3c-1.517,0-3,1.718-3,3v2v1v46v1v2c0,1.282,1.483,3,3,3h3h11h3c1.517,0,3-1.718,3-3v-2v-1v-46v-1v-2  C100,1.817,98.517,0.1,97,0.1z M98.001,55.083C97.961,55.394,97.365,56.1,97,56.1h-3H83h-3c-0.365,0-0.961-0.706-1.001-1.017  L79,53.1h19L98.001,55.083z M79,5.1l-0.001-1.983C79.039,2.806,79.635,2.1,80,2.1h3h11h3c0.365,0,0.961,0.706,1.001,1.017L98,5.1H79  z"></path></svg></g><line x1="41" y1="1" x2="41" y2="17.96" stroke="#ffffff" stroke-linecap="round"></line><path fill="#ffffff" fill-rule="nonzero" d="M15.70 18.82L12.05 19.10L12.05 5.59L8.69 18.96L6.53 18.96L2.90 5.54L2.90 18.82L0 18.96L0 1.13L5.16 0.98L8.14 12.12L10.99 1.39L15.70 1.10L15.70 18.82ZM23.23 19.27Q20.81 19.27 19.50 17.35Q18.19 15.43 18.19 12.24L18.19 12.24Q18.19 9.07 19.49 7.18Q20.78 5.28 23.23 5.28L23.23 5.28Q25.66 5.28 26.99 7.18Q28.32 9.07 28.32 12.24L28.32 12.24Q28.32 15.41 26.99 17.34Q25.66 19.27 23.23 19.27L23.23 19.27ZM23.23 16.78Q24.31 16.78 24.62 15.46Q24.94 14.14 24.94 12.22L24.94 12.22Q24.94 10.30 24.62 8.98Q24.31 7.66 23.23 7.66L23.23 7.66Q22.15 7.66 21.86 8.90Q21.58 10.15 21.58 11.95L21.58 11.95Q21.58 14.16 21.86 15.47Q22.15 16.78 23.23 16.78L23.23 16.78ZM30.60 19.10L30.60 5.74L33.96 5.45L33.96 7.18Q34.99 6.26 35.99 5.77Q36.98 5.28 37.82 5.28L37.82 5.28Q39.10 5.28 39.90 6.20Q40.70 7.13 40.70 8.69L40.70 8.69L40.70 18.82L37.34 19.10L37.34 9.96Q37.34 8.16 36.12 8.16L36.12 8.16Q35.71 8.16 35.22 8.40Q34.73 8.64 33.96 9.10L33.96 9.10L33.96 18.82L30.60 19.10ZM49.39 23.16L49.39 5.74L52.75 5.45L52.75 6.77Q53.54 5.98 54.23 5.63Q54.91 5.28 55.82 5.28L55.82 5.28Q57.07 5.28 57.80 5.98Q58.54 6.67 58.86 8.15Q59.18 9.62 59.18 12.10L59.18 12.10Q59.18 15.48 58.40 17.38Q57.62 19.27 55.42 19.27L55.42 19.27Q54.41 19.27 53.81 18.89Q53.21 18.50 52.75 17.81L52.75 17.81L52.75 22.49L49.39 23.16ZM54.22 16.70Q55.01 16.70 55.40 15.77Q55.80 14.83 55.80 12.24L55.80 12.24Q55.80 9.77 55.40 8.74Q55.01 7.70 54.19 7.70L54.19 7.70Q53.35 7.70 52.75 8.64L52.75 8.64L52.75 15.62Q53.23 16.70 54.22 16.70L54.22 16.70ZM65.90 19.27Q63.48 19.27 62.17 17.35Q60.86 15.43 60.86 12.24L60.86 12.24Q60.86 9.07 62.16 7.18Q63.46 5.28 65.90 5.28L65.90 5.28Q68.33 5.28 69.66 7.18Q70.99 9.07 70.99 12.24L70.99 12.24Q70.99 15.41 69.66 17.34Q68.33 19.27 65.90 19.27L65.90 19.27ZM65.90 16.78Q66.98 16.78 67.30 15.46Q67.61 14.14 67.61 12.22L67.61 12.22Q67.61 10.30 67.30 8.98Q66.98 7.66 65.90 7.66L65.90 7.66Q64.82 7.66 64.54 8.90Q64.25 10.15 64.25 11.95L64.25 11.95Q64.25 14.16 64.54 15.47Q64.82 16.78 65.90 16.78L65.90 16.78ZM73.27 19.10L73.27 5.74L76.63 5.45L76.63 7.63Q77.35 6.60 78.42 5.96Q79.49 5.33 81.14 5.33L81.14 5.33L81.14 8.62Q80.28 8.62 78.88 8.92Q77.47 9.22 76.63 9.96L76.63 9.96L76.63 18.82L73.27 19.10ZM87.58 19.22Q85.94 19.22 84.82 18.40Q83.69 17.57 83.69 15.46L83.69 15.46L83.69 7.99L81.82 7.99L81.96 5.45L83.78 5.45L84.12 2.52L87.05 2.11L87.05 5.45L89.83 5.45L89.69 7.99L87.07 7.99L87.07 15.43Q87.07 16.15 87.43 16.46Q87.79 16.78 88.49 16.78L88.49 16.78Q88.87 16.78 89.78 16.63L89.78 16.63L89.78 18.96Q89.69 18.98 89.03 19.10Q88.37 19.22 87.58 19.22L87.58 19.22ZM92.26 19.10L92.26 7.99L90.60 7.99L90.72 5.45L92.26 5.45L92.26 5.21Q92.26 3.79 92.44 2.92Q92.62 2.04 93.35 1.44Q94.08 0.84 95.62 0.84L95.62 0.84Q97.08 0.84 97.90 1.20L97.90 1.20L97.90 3.22L97.15 3.22Q96.19 3.22 95.92 3.74Q95.64 4.27 95.64 5.21L95.64 5.21L95.64 5.45L98.02 5.45L97.87 7.99L95.64 7.99L95.64 18.82L92.26 19.10ZM104.11 19.27Q101.69 19.27 100.38 17.35Q99.07 15.43 99.07 12.24L99.07 12.24Q99.07 9.07 100.37 7.18Q101.66 5.28 104.11 5.28L104.11 5.28Q106.54 5.28 107.87 7.18Q109.20 9.07 109.20 12.24L109.20 12.24Q109.20 15.41 107.87 17.34Q106.54 19.27 104.11 19.27L104.11 19.27ZM104.11 16.78Q105.19 16.78 105.50 15.46Q105.82 14.14 105.82 12.22L105.82 12.22Q105.82 10.30 105.50 8.98Q105.19 7.66 104.11 7.66L104.11 7.66Q103.03 7.66 102.74 8.90Q102.46 10.15 102.46 11.95L102.46 11.95Q102.46 14.16 102.74 15.47Q103.03 16.78 104.11 16.78L104.11 16.78ZM114.86 18.82L111.50 19.10L111.50 1.39L114.86 0.96L114.86 18.82ZM121.18 3.58L117.82 3.72L117.82 0.24L121.18 0L121.18 3.58ZM121.15 18.82L117.79 19.10L117.79 5.74L121.15 5.45L121.15 18.82ZM128.50 19.27Q126.07 19.27 124.76 17.35Q123.46 15.43 123.46 12.24L123.46 12.24Q123.46 9.07 124.75 7.18Q126.05 5.28 128.50 5.28L128.50 5.28Q130.92 5.28 132.25 7.18Q133.58 9.07 133.58 12.24L133.58 12.24Q133.58 15.41 132.25 17.34Q130.92 19.27 128.50 19.27L128.50 19.27ZM128.50 16.78Q129.58 16.78 129.89 15.46Q130.20 14.14 130.20 12.22L130.20 12.22Q130.20 10.30 129.89 8.98Q129.58 7.66 128.50 7.66L128.50 7.66Q127.42 7.66 127.13 8.90Q126.84 10.15 126.84 11.95L126.84 11.95Q126.84 14.16 127.13 15.47Q127.42 16.78 128.50 16.78L128.50 16.78Z" transform="translate(51, 0)"></path></svg>